# xmcd
# 
# Track frame offsets:
#   150
#   20234
#   38151
#   55112
#   75212
#   90150
#   102992
#   120042
#   136475
#   150074
#   168103
#   179711
#   196477
#   218378
#   235928
#   259056
# 
# Disc length: 3762 seconds
# 
# Revision: 2
# Processed by: cddbd v1.5.2PL0 Copyright (c) Steve Scherf et al.
# Submitted via: Synapstar 1.0 
# 
DISCID=b90eb010
DTITLE=Various Artist - SC8907
DYEAR=1900
DGENRE=Country
TTITLE0=BROOKS and DUNN - IT'S GETTING BETTER ALL THE TIME
TTITLE1=WAYNE, JIMMY - PAPER ANGELS
TTITLE2=KEITH, TOBY - GO WITH HER
TTITLE3=MONTGOMERY GENTRY - GONE
TTITLE4=MCGRAW, TIM - KILL MYSELF
TTITLE5=GRACIN, JOSHUA - NOTHIN' TO LOSE
TTITLE6=TWAIN, SHANIA - I AIN'T NO QUITTER
TTITLE7=MCBRIDE, MARTINA - OVER THE RAINBOW (LIVE VERSION)
TTITLE8=FAIRCHILD, SHELLY - YOU DON'T LIE HERE ANYMORE
TTITLE9=MCGRAW, TIM - HOW BAD DO YOU WANT IT
TTITLE10=NICHOLS, JOE - WHAT'S A GUY GOT TO DO
TTITLE11=GRIGGS, ANDY - IF HEAVEN
TTITLE12=ELAM, KATRINA - NO END IN SIGHT
TTITLE13=LAMBERT, MIRANDA - ME and CHARLIE TALKING
TTITLE14=BIG and RICH - ROLLIN' (THE BALLAD OF BIG and RICH)
TTITLE15=BIG and RICH - ROLLIN' (THE BALLAD OF BIG and RICH) (RAP VERSION)
EXTD=MediaType: Karaoke CD+G Producer: Sound Choice
EXTT0=
EXTT1=
EXTT2=
EXTT3=
EXTT4=
EXTT5=
EXTT6=
EXTT7=
EXTT8=
EXTT9=
EXTT10=
EXTT11=
EXTT12=
EXTT13=
EXTT14=
EXTT15=
PLAYORDER=
